<?xml version="1.0" encoding="utf-8"?>
<!-- Generator: Adobe Illustrator 13.0.0, SVG Export Plug-In . SVG Version: 6.00 Build 14948)  -->
<!DOCTYPE svg PUBLIC "-//W3C//DTD SVG 1.1//EN" "http://www.w3.org/Graphics/SVG/1.1/DTD/svg11.dtd">
<svg version="1.1" id="scaled_down" xmlns="http://www.w3.org/2000/svg" xmlns:xlink="http://www.w3.org/1999/xlink" x="0px"
	 y="0px" width="72.815px" height="78.621px" viewBox="0 0 72.815 78.621" enable-background="new 0 0 72.815 78.621"
	 xml:space="preserve">
<rect x="30.786" y="65.795" width="11.332" height="11.546"/>
<rect x="25.62" y="6.461" width="20.832" height="10.168"/>
<rect x="11.119" y="4.294" width="20.832" height="9.501"/>
<rect x="41.786" y="4.461" width="20.832" height="9.501"/>
<rect x="11.119" y="4.294" width="20.832" height="9.501"/>
<rect x="2.12" y="9.461" width="69.666" height="62.667"/>
<path fill="#FFFFFF" d="M40.514,7.994V6.488l-4.067,3.514l-4.067-3.514v1.47l0,0l0,0c0,0,0.938,1.039,0.938,3.047
	c0,2.008-0.938,3.049-0.938,3.049v1.469h8.134v-1.506c0,0-0.938-1.004-0.938-3.012C39.575,8.998,40.514,7.994,40.514,7.994z
	 M40.514,20.041v-1.505h-8.134v1.47l0,0l0,0c0,0,0.938,1.04,0.938,3.047s-0.938,3.049-0.938,3.049v1.469h8.134v-1.506
	c0,0-0.938-1.004-0.938-3.012S40.514,20.041,40.514,20.041z M3.285,19.037c4.38,0,9.073-7.087,16.581-8.534
	c4.39-0.845,7.525,1.891,9.072,2.51c1.251,0.501,2.19,0,2.19-2.008c0-2.169-1.763-2.92-2.503-3.514
	C28,6.99,23.896,4.147,18.614,5.484C12.67,6.99,6.413,13.515,3.285,14.018C3.285,16.527,3.285,17.03,3.285,19.037z M69.609,14.018
	c-3.129-0.503-9.386-7.028-15.33-8.534c-5.283-1.337-9.385,1.506-10.011,2.008c-0.74,0.593-2.502,1.344-2.502,3.514
	c0,2.008,0.938,2.509,2.19,2.008c1.547-0.619,4.683-3.355,9.072-2.51c7.508,1.447,12.201,8.534,16.582,8.534
	C69.609,17.03,69.609,16.527,69.609,14.018z M3.285,31.084c4.38,0,9.073-7.087,16.581-8.533c4.39-0.845,7.525,1.891,9.072,2.51
	c1.251,0.503,2.19,0,2.19-2.008c0-2.169-1.763-2.92-2.503-3.514c-0.626-0.502-4.729-3.345-10.011-2.008
	c-5.944,1.506-12.201,8.032-15.33,8.533C3.285,28.575,3.285,29.076,3.285,31.084z M69.609,26.064
	c-3.129-0.501-9.386-7.027-15.33-8.533c-5.283-1.337-9.385,1.506-10.011,2.008c-0.74,0.594-2.502,1.344-2.502,3.514
	c0,2.008,0.938,2.511,2.19,2.008c1.547-0.619,4.683-3.355,9.072-2.51c7.508,1.446,12.201,8.533,16.582,8.533
	C69.609,29.076,69.609,28.575,69.609,26.064z M40.514,32.088v-1.506h-8.134v1.47l0,0l0,0c0,0,0.938,1.04,0.938,3.048
	s-0.938,3.049-0.938,3.049v1.469h8.134v-1.506c0,0-0.938-1.004-0.938-3.012S40.514,32.088,40.514,32.088z M40.514,44.136v-1.507
	h-8.134v1.47l0,0l0,0c0,0,0.938,1.04,0.938,3.048c0,2.009-0.938,3.049-0.938,3.049v1.468h8.134v-1.505c0,0-0.938-1.003-0.938-3.012
	C39.575,45.139,40.514,44.136,40.514,44.136z M3.285,43.132c4.38,0,9.073-7.088,16.581-8.533c4.39-0.846,7.525,1.891,9.072,2.509
	c1.251,0.502,2.19,0,2.19-2.008c0-2.169-1.763-2.92-2.503-3.513c-0.626-0.503-4.729-3.346-10.011-2.009
	c-5.944,1.506-12.201,8.031-15.33,8.533C3.285,40.621,3.285,41.124,3.285,43.132z M69.609,38.111
	c-3.129-0.502-9.386-7.027-15.33-8.533c-5.283-1.337-9.385,1.506-10.011,2.009c-0.74,0.593-2.502,1.344-2.502,3.513
	c0,2.008,0.938,2.51,2.19,2.008c1.547-0.618,4.683-3.354,9.072-2.509c7.508,1.445,12.201,8.533,16.582,8.533
	C69.609,41.124,69.609,40.621,69.609,38.111z M3.285,55.179c4.38,0,9.073-7.087,16.581-8.534c4.39-0.845,7.525,1.892,9.072,2.511
	c1.251,0.501,2.19,0,2.19-2.009c0-2.169-1.763-2.919-2.503-3.514c-0.626-0.501-4.729-3.346-10.011-2.008
	c-5.944,1.507-12.201,8.031-15.33,8.533C3.285,52.668,3.285,53.17,3.285,55.179z M69.609,50.158
	c-3.129-0.502-9.386-7.026-15.33-8.533c-5.283-1.338-9.385,1.507-10.011,2.008c-0.74,0.595-2.502,1.345-2.502,3.514
	c0,2.009,0.938,2.51,2.19,2.009c1.547-0.619,4.683-3.355,9.072-2.511c7.508,1.447,12.201,8.534,16.582,8.534
	C69.609,53.17,69.609,52.668,69.609,50.158z M40.514,56.182v-1.507h-8.134v1.472l0,0l0,0c0,0,0.938,1.039,0.938,3.047
	s-0.938,3.049-0.938,3.049v1.469h8.134v-1.506c0,0-0.938-1.004-0.938-3.012S40.514,56.182,40.514,56.182z M40.514,68.229v-1.506
	h-8.134v1.47l0,0l0,0c0,0,0.938,1.04,0.938,3.048c0,2.009-0.938,3.049-0.938,3.049v1.469h8.134v-1.505c0,0-0.938-1.004-0.938-3.013
	C39.575,69.232,40.514,68.229,40.514,68.229z M40.514,78.621 M3.285,67.225c4.38,0,9.073-7.087,16.581-8.532
	c4.39-0.845,7.525,1.89,9.072,2.509c1.251,0.503,2.19,0,2.19-2.008c0-2.169-1.763-2.92-2.503-3.514
	c-0.626-0.501-4.729-3.345-10.011-2.008c-5.944,1.507-12.201,8.032-15.33,8.533C3.285,64.716,3.285,65.217,3.285,67.225z
	 M69.609,62.205c-3.129-0.501-9.386-7.026-15.33-8.533c-5.283-1.337-9.385,1.507-10.011,2.008c-0.74,0.594-2.502,1.345-2.502,3.514
	c0,2.008,0.938,2.511,2.19,2.008c1.547-0.619,4.683-3.354,9.072-2.509c7.508,1.445,12.201,8.532,16.582,8.532
	C69.609,65.217,69.609,64.716,69.609,62.205z M20.804,72.766c-6.257,0-9.025,2.953-14.078,4.219
	c-4.683,1.174-6.648,0.422-6.648,0.422V8.016H0c1.955,0,4.952-1.327,7.665-2.953C13.296,1.688,16.972,0,23.542,0
	c6.883,0,12.827,5.748,12.827,5.748S42.312,0,49.195,0c6.57,0,10.402,1.688,16.033,5.062c2.712,1.626,5.554,2.953,7.509,2.953h0.078
	v69.391c0,0-1.966,0.752-6.647-0.422c-5.053-1.266-7.821-4.219-14.079-4.219c-6.257,0-9.104,2.531-9.104,2.531
	c1.032,1.266-0.282,2.953-1.533,2.953s-5.005,0-5.005,0s-3.441,0-5.006,0c-1.251,0-2.565-1.688-1.533-2.953
	C29.908,75.297,27.061,72.766,20.804,72.766z"/>
</svg>
